HIERARCHY
ROOT hip
{
	OFFSET 0.000000 0.000000 0.000000
	CHANNELS 6 Xposition Yposition Zposition Xrotation Zrotation Yrotation 
	JOINT abdomen
	{
		OFFSET 0.000000 3.422050 0.000000
		CHANNELS 3 Xrotation Zrotation Yrotation 
		JOINT chest
		{
			OFFSET 0.000000 8.486693 -0.684411
			CHANNELS 3 Xrotation Zrotation Yrotation 
			JOINT neck
			{
				OFFSET 0.000000 10.266162 -0.273764
				CHANNELS 3 Xrotation Zrotation Yrotation 
				JOINT head
				{
					OFFSET 0.000000 3.148285 0.000000
					CHANNELS 3 Xrotation Zrotation Yrotation 
					End Site
					{
						OFFSET 0.000000 3.148289 0.000000
					}
				}
			}
			JOINT lCollar
			{
				OFFSET 3.422053 6.707223 -0.821293
				CHANNELS 3 Yrotation Zrotation Xrotation 
				JOINT lShldr
				{
					OFFSET 3.285171 0.000000 0.000000
					CHANNELS 3 Zrotation Yrotation Xrotation 
					JOINT lForeArm
					{
						OFFSET 10.129278 0.000000 0.000000
						CHANNELS 3 Yrotation Zrotation Xrotation 
						JOINT lHand
						{
							OFFSET 8.486692 0.000000 0.000000
							CHANNELS 3 Zrotation Yrotation Xrotation 
							End Site
							{
								OFFSET 4.106464 0.000000 0.000000
							}
						}
					}
				}
			}
			JOINT rCollar
			{
				OFFSET -3.558935 6.707223 -0.821293
				CHANNELS 3 Yrotation Zrotation Xrotation 
				JOINT rShldr
				{
					OFFSET -3.148289 0.000000 0.000000
					CHANNELS 3 Zrotation Yrotation Xrotation 
					JOINT rForeArm
					{
						OFFSET -10.266159 0.000000 0.000000
						CHANNELS 3 Yrotation Zrotation Xrotation 
						JOINT rHand
						{
							OFFSET -8.349810 0.000000 0.000000
							CHANNELS 3 Zrotation Yrotation Xrotation 
							End Site
							{
								OFFSET -4.106464 0.000000 0.000000
							}
						}
					}
				}
			}
		}
	}
	JOINT lThigh
	{
		OFFSET 5.338403 -1.642589 1.368821
		CHANNELS 3 Xrotation Zrotation Yrotation 
		JOINT lShin
		{
			OFFSET -2.053232 -20.121670 0.000000
			CHANNELS 3 Xrotation Zrotation Yrotation 
			JOINT lFoot
			{
				OFFSET 0.000000 -19.300380 -1.231939
				CHANNELS 3 Xrotation Yrotation Zrotation 
				End Site
				{
					OFFSET 0.000000 -2.463878 4.653993
				}
			}
		}
	}
	JOINT rThigh
	{
		OFFSET -5.338403 -1.642589 1.368821
		CHANNELS 3 Xrotation Zrotation Yrotation 
		JOINT rShin
		{
			OFFSET 2.053232 -20.121670 0.000000
			CHANNELS 3 Xrotation Zrotation Yrotation 
			JOINT rFoot
			{
				OFFSET 0.000000 -19.300380 -1.231939
				CHANNELS 3 Xrotation Yrotation Zrotation 
				End Site
				{
					OFFSET 0.000000 -2.463878 4.653993
				}
			}
		}
	}
}
MOTION
Frames:	11
Frame Time:	0.033333
0.000000 16.146822 0.000000 -11.396151 -15.082915 13.073703 -50.000000 0.000000 -19.600000 20.000000 0.000000 19.076923 0.000000 0.000000 0.000000 -27.000000 -17.710844 0.000000 0.000000 0.000000 0.000000 -8.314285 -88.314285 -1.085714 -117.171425 4.714286 -19.457144 0.000000 0.000000 1.734940 0.000000 0.000000 0.000000 38.602409 86.024094 30.000000 127.771431 -4.714286 -9.714286 0.000000 -7.000000 -24.000000 -94.349998 1.500000 0.000000 120.599998 0.000000 0.000000 -38.950001 0.000000 0.000000 35.400002 -6.966663 0.000000 83.000000 0.000000 0.000000 -48.571430 0.000000 -0.028571 
0.000000 16.572916 0.000000 -12.545829 -15.323545 13.287596 -50.000000 0.000000 -14.200000 20.000000 0.000000 19.692308 0.000000 0.000000 0.000000 -27.000000 -18.072289 0.000000 0.000000 0.000000 0.000000 -8.628572 -88.628571 -0.171429 -113.342857 4.428571 -18.914286 0.000000 0.000000 2.566265 0.000000 0.000000 0.000000 38.349396 86.493973 30.000000 125.542854 -4.428571 -9.428572 0.000000 -7.000000 -24.000000 -93.699997 3.000000 0.000000 120.199997 0.000000 0.000000 -38.900002 0.000000 0.000000 33.799999 -7.599997 0.000000 84.000000 0.000000 0.000000 -47.142857 0.000000 -0.057143 
0.000000 17.236576 0.000000 -14.336500 -15.698338 13.620745 -50.000000 0.000000 -8.800000 20.000000 0.000000 20.307692 0.000000 0.000000 0.000000 -27.000000 -18.433735 0.000000 0.000000 0.000000 0.000000 -8.942857 -88.942856 0.742857 -109.514282 4.142857 -18.371429 0.000000 0.000000 3.397590 0.000000 0.000000 0.000000 38.096386 86.963852 30.000000 123.314285 -4.142857 -9.142858 0.000000 -7.000000 -24.000000 -93.050003 4.500000 0.000000 119.800003 0.000000 0.000000 -38.849998 0.000000 0.000000 32.200001 -8.233331 0.000000 85.000000 0.000000 0.000000 -45.714287 0.000000 -0.085714 
0.000000 18.072844 0.000000 -16.592894 -16.170605 14.040538 -50.000000 0.000000 -3.400000 20.000000 0.000000 20.923077 0.000000 0.000000 0.000000 -27.000000 -18.795181 0.000000 0.000000 0.000000 0.000000 -9.257143 -89.257141 1.657143 -105.685715 3.857143 -17.828571 0.000000 0.000000 4.228916 0.000000 0.000000 0.000000 37.843372 87.433739 30.000000 121.085716 -3.857143 -8.857142 0.000000 -7.000000 -24.000000 -92.400002 6.000000 0.000000 119.400002 0.000000 0.000000 -38.799999 0.000000 0.000000 30.600000 -8.866664 0.000000 86.000000 0.000000 0.000000 -44.285713 0.000000 -0.114286 
0.000000 18.999861 0.000000 -19.094149 -16.694124 14.505888 -50.000000 0.000000 2.000000 20.000000 0.000000 21.538462 0.000000 0.000000 0.000000 -27.000000 -19.156626 0.000000 0.000000 0.000000 0.000000 -9.571428 -89.571426 2.571429 -101.857140 3.571429 -17.285715 0.000000 0.000000 5.060241 0.000000 0.000000 0.000000 37.590363 87.903618 30.000000 118.857140 -3.571429 -8.571428 0.000000 -7.000000 -24.000000 -91.750000 7.500000 0.000000 119.000000 0.000000 0.000000 -38.750000 0.000000 0.000000 29.000000 -9.499997 0.000000 87.000000 0.000000 0.000000 -42.857143 0.000000 -0.142857 
0.000000 19.600000 0.000000 -20.713428 -17.033043 14.807150 -50.000000 0.000000 7.400000 20.000000 0.000000 22.153847 0.000000 0.000000 0.000000 -27.000000 -19.518072 0.000000 0.000000 0.000000 0.000000 -9.885715 -89.885712 3.485714 -98.028572 3.285714 -16.742857 0.000000 0.000000 5.891566 0.000000 0.000000 0.000000 37.337349 88.373497 30.000000 116.628571 -3.285714 -8.285714 0.000000 -7.000000 -24.000000 -91.099998 9.000000 0.000000 118.599998 0.000000 0.000000 -38.700001 0.000000 0.000000 27.400000 -10.133331 0.000000 88.000000 0.000000 0.000000 -41.428570 0.000000 -0.171429 
0.000000 20.200001 0.000000 -22.332335 -17.371883 15.108341 -50.000000 0.000000 12.800000 20.000000 0.000000 22.769230 0.000000 0.000000 0.000000 -27.000000 -19.879519 0.000000 0.000000 0.000000 0.000000 -10.200000 -90.199997 4.400000 -94.199997 3.000000 -16.200001 0.000000 0.000000 6.722891 0.000000 0.000000 0.000000 37.084339 88.843376 30.000000 114.400002 -3.000000 -8.000000 0.000000 -7.000000 -24.000000 -90.449997 10.500000 0.000000 118.199997 0.000000 0.000000 -38.650002 0.000000 0.000000 25.799999 -10.766665 0.000000 89.000000 0.000000 0.000000 -40.000000 0.000000 -0.200000 
0.000000 20.799999 0.000000 -23.951239 -17.710724 15.409533 -50.000000 0.000000 18.200001 20.000000 0.000000 23.384615 0.000000 0.000000 0.000000 -27.000000 -20.240963 0.000000 0.000000 0.000000 0.000000 -10.514286 -90.514282 5.314286 -90.371429 2.714286 -15.657143 0.000000 0.000000 7.554217 0.000000 0.000000 0.000000 36.831326 89.313255 30.000000 112.171425 -2.714286 -7.714286 0.000000 -7.000000 -24.000000 -89.800003 12.000000 0.000000 117.800003 0.000000 0.000000 -38.599998 0.000000 0.000000 24.200001 -11.399998 0.000000 90.000000 0.000000 0.000000 -38.571430 0.000000 -0.228571 
0.000000 21.400000 0.000000 -25.570145 -18.049564 15.710725 -50.000000 0.000000 23.600000 20.000000 0.000000 24.000000 0.000000 0.000000 0.000000 -27.000000 -20.602409 0.000000 0.000000 0.000000 0.000000 -10.828571 -90.828575 6.228571 -86.542854 2.428571 -15.114285 0.000000 0.000000 8.385542 0.000000 0.000000 0.000000 36.578312 89.783134 30.000000 109.942856 -2.428571 -7.428571 0.000000 -7.000000 -24.000000 -89.150002 13.500000 0.000000 117.400002 0.000000 0.000000 -38.549999 0.000000 0.000000 22.600000 -12.033332 0.000000 91.000000 0.000000 0.000000 -37.142857 0.000000 -0.257143 
0.000000 22.000000 0.000000 -27.189049 -18.388405 16.011915 -50.000000 0.000000 29.000000 20.000000 0.000000 24.615385 0.000000 0.000000 0.000000 -27.000000 -20.963856 0.000000 0.000000 0.000000 0.000000 -11.142858 -91.142860 7.142857 -82.714287 2.142857 -14.571428 0.000000 0.000000 9.216867 0.000000 0.000000 0.000000 36.325302 90.253014 30.000000 107.714287 -2.142857 -7.142857 0.000000 -7.000000 -24.000000 -88.500000 15.000000 0.000000 117.000000 0.000000 0.000000 -38.500000 0.000000 0.000000 21.000000 -12.666665 0.000000 92.000000 0.000000 0.000000 -35.714287 0.000000 -0.285714 
0.000000 21.799999 0.000000 -29.981487 -18.972870 16.531439 -48.000000 0.000000 28.160000 20.000000 0.000000 25.230770 0.000000 0.000000 0.000000 -27.000000 -21.325302 0.000000 0.000000 0.000000 0.000000 -11.457143 -91.457146 8.057143 -78.885712 1.857143 -14.028571 0.000000 0.000000 10.048193 0.000000 0.000000 0.000000 36.072289 90.722893 30.000000 105.485718 -1.857143 -6.857143 0.000000 -7.000000 -24.000000 -87.849998 16.500000 0.000000 116.599998 0.000000 0.000000 -38.450001 0.000000 0.000000 19.400000 -13.299998 0.000000 93.000000 0.000000 0.000000 -34.285713 0.000000 -0.314286 
